<!--?xml version="1.0" encoding="utf-8"?-->
<!-- Generator: Adobe Illustrator 25.1.0, SVG Export Plug-In . SVG Version: 6.00 Build 0)  -->
<svg version="1.1" id="Layer_1" xmlns="http://www.w3.org/2000/svg" xmlns:xlink="http://www.w3.org/1999/xlink" x="0px" y="0px" viewBox="0 0 285.84 80.64" style="" xml:space="preserve">
<style type="text/css">
	.st0{fill:#151ED8;}
	.st1{fill:none;stroke:#151ED8;stroke-width:5;stroke-miterlimit:10;}
	.st2{fill:none;stroke:#151ED8;stroke-width:5;stroke-linejoin:round;stroke-miterlimit:10;}
	.st3{font-family:'Gilroy-Regular';}
	.st4{font-size:22.7848px;}
</style>
<g>
	<g>
		<path class="st0 ClMcFYgf_0" d="M96.7,52.34c-2.76-2.82-4.14-6.24-4.14-10.38s1.38-7.56,4.14-10.38c2.82-2.82,6.29-4.2,10.43-4.2
			c5.35,0,10.1,2.76,12.37,7.12l-6.13,3.59c-1.1-2.26-3.48-3.7-6.29-3.7c-4.25,0-7.4,3.15-7.4,7.56c0,2.15,0.72,3.97,2.1,5.41
			c1.38,1.38,3.15,2.1,5.3,2.1c2.87,0,5.24-1.38,6.35-3.64l6.18,3.53c-2.43,4.36-7.12,7.18-12.48,7.18
			C103,56.54,99.52,55.16,96.7,52.34z"></path>
		<path class="st0 ClMcFYgf_1" d="M140.15,28.16h7.12v28.38h-7.12v-3.86c-1.71,2.59-4.47,3.86-8.23,3.86c-3.04,0-5.52-0.99-7.51-3.04
			c-1.93-2.04-2.93-4.8-2.93-8.39V28.16h7.12v16.06c0,3.7,2.15,5.69,5.47,5.69c3.7,0,6.07-2.26,6.07-6.85V28.16z M126.46,24.41
			c-1.49-1.49-1.49-3.81,0-5.3s3.86-1.49,5.24,0c1.49,1.49,1.49,3.81,0,5.3C130.32,25.79,127.95,25.79,126.46,24.41z M136.95,24.41
			c-1.49-1.49-1.49-3.81,0-5.3c1.49-1.49,3.86-1.49,5.24,0c1.49,1.49,1.49,3.81,0,5.3C140.81,25.79,138.44,25.79,136.95,24.41z"></path>
		<path class="st0 ClMcFYgf_2" d="M160.79,49.86h12.26v6.68h-21.81v-4.75l11.65-16.95h-11.1v-6.68h20.7v4.75L160.79,49.86z"></path>
		<path class="st0 ClMcFYgf_3" d="M195.85,15.56h7.12v40.97h-7.12v-4.03c-2.1,2.71-5.08,4.03-8.94,4.03c-3.7,0-6.9-1.38-9.55-4.2
			c-2.59-2.82-3.92-6.29-3.92-10.38c0-4.09,1.32-7.51,3.92-10.32c2.65-2.82,5.85-4.25,9.55-4.25c3.86,0,6.85,1.33,8.94,4.03V15.56z
			 M188.23,49.75c2.21,0,4.03-0.72,5.47-2.15c1.44-1.49,2.15-3.37,2.15-5.63s-0.72-4.14-2.15-5.58c-1.44-1.49-3.26-2.21-5.47-2.21
			c-2.21,0-4.03,0.72-5.52,2.21c-1.44,1.44-2.15,3.31-2.15,5.58s0.72,4.14,2.15,5.63C184.2,49.03,186.02,49.75,188.23,49.75z"></path>
		<path class="st0 ClMcFYgf_4" d="M228.81,28.16h7.12v28.38h-7.12v-4.03c-2.15,2.71-5.13,4.03-9,4.03c-3.7,0-6.85-1.38-9.5-4.2
			c-2.59-2.82-3.92-6.29-3.92-10.38c0-4.09,1.32-7.51,3.92-10.32c2.65-2.82,5.8-4.25,9.5-4.25c3.86,0,6.85,1.33,9,4.03V28.16z
			 M221.13,49.75c2.21,0,4.03-0.72,5.47-2.15c1.49-1.49,2.21-3.37,2.21-5.63s-0.72-4.14-2.21-5.58c-1.44-1.49-3.26-2.21-5.47-2.21
			c-2.21,0-4.03,0.72-5.47,2.21c-1.44,1.44-2.15,3.31-2.15,5.58s0.72,4.14,2.15,5.63C217.1,49.03,218.92,49.75,221.13,49.75z"></path>
		<path class="st0 ClMcFYgf_5" d="M263.53,30.42c1.99,2.04,2.98,4.8,2.98,8.39v17.72h-7.12V39.7c0-3.7-2.15-5.69-5.47-5.69
			c-3.7,0-6.07,2.26-6.07,6.85v15.68h-7.12V28.16h7.12v3.09c1.71-2.59,4.47-3.86,8.23-3.86C259.11,27.39,261.6,28.38,263.53,30.42z"></path>
	</g>
</g>
<path class="st1 ClMcFYgf_6" d="M35.84,47.06l8.78,15.2l-4.5,7.8c-2.22,3.85-6.12,6.4-10.47,6.93c-4.35-0.53-8.25-3.08-10.47-6.93l-13.28-23
	c-2.51-4.35-2.51-9.72,0-14.07l13.28-23c2.23-3.85,6.12-6.4,10.47-6.93C34,3.59,37.89,6.13,40.12,9.99l4.5,7.8l-8.78,15.2
	C33.33,37.34,33.33,42.71,35.84,47.06z"></path>
<path class="st2 ClMcFYgf_7" d="M76.96,49.29c2.28,0,3.71,2.47,2.57,4.45l-9.25,16.02l-0.17,0.29c-2.51,4.35-7.16,7.04-12.19,7.04H31.36
	c-0.58,0-1.15-0.04-1.72-0.11c4.35-0.53,8.25-3.08,10.47-6.93l10.71-18.54c0.79-1.38,2.26-2.22,3.85-2.22H76.96z"></path>
<path class="st2 ClMcFYgf_8" d="M76.96,30.76c2.28,0,3.71-2.47,2.57-4.45l-9.25-16.02l-0.17-0.29c-2.51-4.35-7.16-7.04-12.19-7.04H31.36
	c-0.58,0-1.15,0.04-1.72,0.11C34,3.59,37.89,6.13,40.12,9.99l10.71,18.54c0.79,1.38,2.26,2.22,3.85,2.22H76.96z"></path>
<path class="st2 ClMcFYgf_9" d="M42.22,77.1c2.18-0.27,4.12-1.59,5.24-3.52l8.69-14.28c0.4-0.69,1.13-1.11,1.93-1.11h7.8
	c1.14,0,1.85,1.24,1.28,2.22L59.2,73.43l-0.09,0.15c-1.26,2.18-3.58,3.52-6.09,3.52H42.22z"></path>
<g>
	<text transform="matrix(1 0 0 1 268.428 30.8542)" class="st0 st3 st4">®</text>
</g>
<style data-made-with="vivus-instant">.ClMcFYgf_0{stroke-dasharray:130 132;stroke-dashoffset:131;animation:ClMcFYgf_draw_0 2900ms linear 0ms infinite,ClMcFYgf_fade 2900ms linear 0ms infinite;}.ClMcFYgf_1{stroke-dasharray:195 197;stroke-dashoffset:196;animation:ClMcFYgf_draw_1 2900ms linear 0ms infinite,ClMcFYgf_fade 2900ms linear 0ms infinite;}.ClMcFYgf_2{stroke-dasharray:130 132;stroke-dashoffset:131;animation:ClMcFYgf_draw_2 2900ms linear 0ms infinite,ClMcFYgf_fade 2900ms linear 0ms infinite;}.ClMcFYgf_3{stroke-dasharray:189 191;stroke-dashoffset:190;animation:ClMcFYgf_draw_3 2900ms linear 0ms infinite,ClMcFYgf_fade 2900ms linear 0ms infinite;}.ClMcFYgf_4{stroke-dasharray:164 166;stroke-dashoffset:165;animation:ClMcFYgf_draw_4 2900ms linear 0ms infinite,ClMcFYgf_fade 2900ms linear 0ms infinite;}.ClMcFYgf_5{stroke-dasharray:150 152;stroke-dashoffset:151;animation:ClMcFYgf_draw_5 2900ms linear 0ms infinite,ClMcFYgf_fade 2900ms linear 0ms infinite;}.ClMcFYgf_6{stroke-dasharray:188 190;stroke-dashoffset:189;animation:ClMcFYgf_draw_6 2900ms linear 0ms infinite,ClMcFYgf_fade 2900ms linear 0ms infinite;}.ClMcFYgf_7{stroke-dasharray:130 132;stroke-dashoffset:131;animation:ClMcFYgf_draw_7 2900ms linear 0ms infinite,ClMcFYgf_fade 2900ms linear 0ms infinite;}.ClMcFYgf_8{stroke-dasharray:130 132;stroke-dashoffset:131;animation:ClMcFYgf_draw_8 2900ms linear 0ms infinite,ClMcFYgf_fade 2900ms linear 0ms infinite;}.ClMcFYgf_9{stroke-dasharray:71 73;stroke-dashoffset:72;animation:ClMcFYgf_draw_9 2900ms linear 0ms infinite,ClMcFYgf_fade 2900ms linear 0ms infinite;}@keyframes ClMcFYgf_draw{100%{stroke-dashoffset:0;}}@keyframes ClMcFYgf_fade{0%{stroke-opacity:1;}93.10344827586206%{stroke-opacity:1;}100%{stroke-opacity:0;}}@keyframes ClMcFYgf_draw_0{6.896551724137931%{stroke-dashoffset: 131}58.620689655172406%{ stroke-dashoffset: 0;}100%{ stroke-dashoffset: 0;}}@keyframes ClMcFYgf_draw_1{6.896551724137931%{stroke-dashoffset: 196}58.620689655172406%{ stroke-dashoffset: 0;}100%{ stroke-dashoffset: 0;}}@keyframes ClMcFYgf_draw_2{6.896551724137931%{stroke-dashoffset: 131}58.620689655172406%{ stroke-dashoffset: 0;}100%{ stroke-dashoffset: 0;}}@keyframes ClMcFYgf_draw_3{6.896551724137931%{stroke-dashoffset: 190}58.620689655172406%{ stroke-dashoffset: 0;}100%{ stroke-dashoffset: 0;}}@keyframes ClMcFYgf_draw_4{6.896551724137931%{stroke-dashoffset: 165}58.620689655172406%{ stroke-dashoffset: 0;}100%{ stroke-dashoffset: 0;}}@keyframes ClMcFYgf_draw_5{6.896551724137931%{stroke-dashoffset: 151}58.620689655172406%{ stroke-dashoffset: 0;}100%{ stroke-dashoffset: 0;}}@keyframes ClMcFYgf_draw_6{6.896551724137931%{stroke-dashoffset: 189}58.620689655172406%{ stroke-dashoffset: 0;}100%{ stroke-dashoffset: 0;}}@keyframes ClMcFYgf_draw_7{6.896551724137931%{stroke-dashoffset: 131}58.620689655172406%{ stroke-dashoffset: 0;}100%{ stroke-dashoffset: 0;}}@keyframes ClMcFYgf_draw_8{6.896551724137931%{stroke-dashoffset: 131}58.620689655172406%{ stroke-dashoffset: 0;}100%{ stroke-dashoffset: 0;}}@keyframes ClMcFYgf_draw_9{6.896551724137931%{stroke-dashoffset: 72}58.620689655172406%{ stroke-dashoffset: 0;}100%{ stroke-dashoffset: 0;}}</style></svg>
