<!-- Generated by IcoMoon.io -->
<svg version="1.1" xmlns="http://www.w3.org/2000/svg" width="32" height="32" viewBox="0 0 32 32">
<title>IconWaterDrop</title>
<path d="M16.711 3.841c-0.401-0.381-1.026-0.381-1.427 0-0.366 0.35-9.026 8.629-9.026 14.191 0 5.739 4.368 10.412 9.742 10.412 5.369 0 9.742-4.673 9.742-10.412 0-5.562-8.66-13.841-9.031-14.191zM16 26.372c-4.226 0-7.664-3.743-7.664-8.34 0-3.53 5.008-9.305 7.664-11.987 2.656 2.682 7.664 8.457 7.664 11.987 0 4.597-3.439 8.34-7.664 8.34z"></path>
<path d="M12.048 17.814c0.010-0.569-0.437-1.041-1.011-1.056-0.010 0-0.020 0-0.025 0-0.559 0-1.021 0.447-1.036 1.011-0.005 0.117-0.071 2.936 2.159 5.272 0.498 0.523 1.265 0.234 1.468 0.046 0.416-0.391 0.437-1.046 0.046-1.468-1.605-1.702-1.6-3.759-1.6-3.804z"></path>
</svg>
