<!-- Generated by IcoMoon.io -->
<svg version="1.1" xmlns="http://www.w3.org/2000/svg" width="20" height="20" viewBox="0 0 20 20">
<title>IconInvoiceOutline</title>
<path d="M11.273 7.798c0-0.351-0.285-0.636-0.636-0.636h-5.091c-0.351 0-0.636 0.285-0.636 0.636s0.285 0.636 0.636 0.636h5.091c0.351 0 0.636-0.285 0.636-0.636z"></path>
<path d="M10.424 10.343c0-0.352-0.285-0.636-0.636-0.636h-4.242c-0.351 0-0.636 0.285-0.636 0.636s0.285 0.636 0.636 0.636h4.242c0.351 0 0.636-0.285 0.636-0.636z"></path>
<path d="M10.636 12.252c0.351 0 0.636 0.285 0.636 0.636s-0.285 0.636-0.636 0.636h-5.091c-0.351 0-0.636-0.285-0.636-0.636s0.285-0.636 0.636-0.636h5.091z"></path>
<path d="M4.909 17.979h11.029c1.289 0 2.333-1.045 2.333-2.333v-4.666c0-0.352-0.285-0.636-0.636-0.636h-2.757v-6.623c0-1.208-1.365-1.91-2.348-1.208l-0.148 0.106c-0.662 0.473-1.559 0.471-2.224-0.004-1.106-0.79-2.603-0.79-3.709 0-0.665 0.475-1.562 0.477-2.224 0.004l-0.149-0.106c-0.983-0.702-2.348 0.001-2.348 1.208v11.078c0 1.757 1.424 3.182 3.182 3.182zM7.188 3.649c0.664-0.474 1.566-0.474 2.23 0 1.105 0.789 2.596 0.795 3.704 0.004l0.149-0.106c0.14-0.1 0.335 0 0.335 0.173v11.926c0 0.382 0.092 0.742 0.254 1.061h-8.951c-1.054 0-1.909-0.855-1.909-1.909v-11.078c0-0.173 0.195-0.273 0.335-0.173l0.149 0.106c1.108 0.791 2.599 0.785 3.704-0.004zM14.878 15.646v-4.030h2.121v4.030c0 0.586-0.475 1.061-1.061 1.061s-1.061-0.475-1.061-1.061z"></path>
</svg>
