<!-- Generated by IcoMoon.io -->
<svg version="1.1" xmlns="http://www.w3.org/2000/svg" width="32" height="32" viewBox="0 0 32 32">
<title>IconSettings</title>
<path d="M17.161 28.444h-2.323c-0.785 0-1.448-0.588-1.541-1.369l-0.248-1.945c-0.495-0.161-0.972-0.359-1.425-0.59l-1.549 1.204c-0.628 0.486-1.513 0.43-2.059-0.131l-1.633-1.633c-0.557-0.54-0.613-1.425-0.127-2.052l1.204-1.55c-0.232-0.453-0.43-0.93-0.59-1.425l-1.95-0.248c-0.778-0.095-1.366-0.758-1.366-1.543v-2.323c0-0.785 0.588-1.448 1.369-1.541l1.945-0.248c0.161-0.495 0.359-0.972 0.59-1.425l-1.203-1.549c-0.487-0.628-0.43-1.514 0.132-2.060l1.633-1.633c0.54-0.557 1.426-0.612 2.052-0.127l1.549 1.205c0.453-0.231 0.93-0.429 1.426-0.59l0.248-1.95c0.093-0.778 0.756-1.366 1.541-1.366h2.323c0.785 0 1.448 0.588 1.541 1.369l0.248 1.945c0.496 0.161 0.973 0.359 1.426 0.59l1.549-1.204c0.629-0.486 1.513-0.43 2.059 0.132l1.633 1.633c0.557 0.54 0.613 1.425 0.127 2.052l-1.204 1.55c0.232 0.453 0.43 0.93 0.59 1.425l1.95 0.248c0.777 0.094 1.365 0.757 1.365 1.542v2.323c0 0.785-0.588 1.448-1.369 1.541l-1.945 0.248c-0.161 0.495-0.359 0.972-0.59 1.425l1.204 1.549c0.487 0.628 0.43 1.513-0.132 2.059l-1.633 1.633c-0.54 0.557-1.426 0.614-2.052 0.127l-1.55-1.204c-0.453 0.232-0.93 0.43-1.425 0.59l-0.248 1.95c-0.094 0.778-0.757 1.366-1.542 1.366zM11.572 23.404c0.086 0 0.174 0.022 0.253 0.065 0.571 0.319 1.191 0.577 1.84 0.763 0.199 0.057 0.345 0.227 0.371 0.432l0.29 2.281c0.031 0.26 0.256 0.46 0.512 0.46h2.323c0.256 0 0.481-0.2 0.511-0.455l0.291-2.286c0.026-0.205 0.172-0.375 0.371-0.432 0.649-0.187 1.268-0.444 1.84-0.763 0.181-0.102 0.408-0.084 0.57 0.044l1.815 1.41c0.208 0.162 0.501 0.148 0.679-0.035l1.644-1.644c0.188-0.183 0.202-0.475 0.040-0.684l-1.41-1.815c-0.128-0.164-0.145-0.389-0.044-0.57 0.319-0.571 0.577-1.191 0.763-1.84 0.057-0.199 0.227-0.345 0.432-0.371l2.281-0.29c0.26-0.032 0.46-0.257 0.46-0.513v-2.323c0-0.256-0.2-0.481-0.455-0.511l-2.286-0.291c-0.205-0.026-0.375-0.172-0.432-0.371-0.187-0.649-0.444-1.268-0.763-1.84-0.102-0.181-0.085-0.407 0.044-0.57l1.41-1.815c0.163-0.209 0.148-0.502-0.034-0.678l-1.644-1.644c-0.181-0.189-0.475-0.203-0.684-0.040l-1.815 1.41c-0.165 0.128-0.39 0.145-0.571 0.044-0.569-0.319-1.188-0.576-1.84-0.763-0.199-0.057-0.345-0.227-0.371-0.432l-0.29-2.281c-0.032-0.261-0.257-0.461-0.513-0.461h-2.323c-0.256 0-0.481 0.2-0.511 0.455l-0.291 2.286c-0.026 0.205-0.172 0.375-0.371 0.433-0.651 0.187-1.27 0.444-1.84 0.762-0.181 0.103-0.407 0.084-0.571-0.043l-1.815-1.41c-0.209-0.163-0.501-0.148-0.678 0.034l-1.644 1.645c-0.188 0.183-0.202 0.475-0.040 0.684l1.41 1.815c0.128 0.164 0.145 0.389 0.044 0.57-0.32 0.571-0.577 1.191-0.763 1.84-0.057 0.199-0.227 0.345-0.432 0.371l-2.281 0.29c-0.26 0.031-0.46 0.256-0.46 0.512v2.323c0 0.256 0.2 0.481 0.455 0.511l2.286 0.291c0.205 0.026 0.375 0.172 0.432 0.371 0.187 0.649 0.444 1.268 0.763 1.84 0.102 0.181 0.085 0.407-0.044 0.57l-1.41 1.815c-0.163 0.209-0.148 0.502 0.034 0.678l1.644 1.644c0.181 0.188 0.473 0.202 0.684 0.040l1.815-1.41c0.094-0.071 0.206-0.108 0.319-0.108z"></path>
<path d="M16 21.185c-2.859 0-5.185-2.326-5.185-5.185s2.326-5.185 5.185-5.185 5.185 2.326 5.185 5.185-2.326 5.185-5.185 5.185zM16 11.852c-2.288 0-4.148 1.86-4.148 4.148s1.86 4.148 4.148 4.148 4.148-1.86 4.148-4.148-1.86-4.148-4.148-4.148z"></path>
</svg>
