<!-- Generated by IcoMoon.io -->
<svg version="1.1" xmlns="http://www.w3.org/2000/svg" width="32" height="32" viewBox="0 0 32 32">
<title>IconEdit</title>
<path d="M14.807 5.942h-7.876c-0.932 0-1.778 0.379-2.386 0.989s-0.989 1.455-0.989 2.386v15.751c0 0.932 0.379 1.778 0.989 2.386s1.455 0.989 2.386 0.989h15.751c0.932 0 1.778-0.379 2.386-0.989s0.989-1.455 0.989-2.386v-7.876c0-0.62-0.504-1.124-1.124-1.124s-1.124 0.504-1.124 1.124v7.876c0 0.31-0.125 0.59-0.33 0.796s-0.485 0.33-0.796 0.33h-15.751c-0.31 0-0.59-0.125-0.796-0.33s-0.33-0.485-0.33-0.796v-15.751c0-0.31 0.125-0.59 0.33-0.796s0.485-0.33 0.796-0.33h7.876c0.62 0 1.124-0.504 1.124-1.124s-0.504-1.124-1.124-1.124zM22.449 4.584l-10.688 10.688c-0.138 0.136-0.244 0.314-0.296 0.523l-1.124 4.5c-0.044 0.168-0.047 0.358 0 0.546 0.151 0.603 0.761 0.969 1.364 0.818l4.5-1.124c0.188-0.046 0.37-0.145 0.523-0.296l10.688-10.688c0.685-0.685 1.028-1.587 1.028-2.483s-0.343-1.798-1.028-2.483-1.588-1.030-2.484-1.030-1.798 0.343-2.483 1.028zM24.041 6.175c0.247-0.247 0.567-0.369 0.892-0.369s0.646 0.122 0.892 0.369 0.369 0.567 0.369 0.892-0.122 0.646-0.369 0.892l-10.468 10.468-2.378 0.596 0.596-2.378z"></path>
</svg>
