<!-- Generated by IcoMoon.io -->
<svg version="1.1" xmlns="http://www.w3.org/2000/svg" width="20" height="20" viewBox="0 0 20 20">
<title>IconAlert</title>
<path d="M17.708 13.795l-6.129-9.604c-0.346-0.542-0.936-0.865-1.578-0.865s-1.233 0.323-1.578 0.865l-6.13 9.604c-0.368 0.577-0.392 1.307-0.063 1.907s0.958 0.972 1.642 0.972h12.259c0.684 0 1.313-0.373 1.642-0.972s0.304-1.331-0.064-1.907zM10 15.058c-0.564 0-1.021-0.457-1.021-1.021s0.457-1.021 1.021-1.021c0.564 0 1.021 0.457 1.021 1.021s-0.457 1.021-1.021 1.021zM11.415 7.966l-0.503 3.384c-0.074 0.498-0.538 0.842-1.036 0.768-0.402-0.060-0.704-0.375-0.766-0.757l-0.546-3.378c-0.127-0.786 0.407-1.527 1.194-1.654s1.527 0.407 1.654 1.194c0.024 0.148 0.023 0.301 0.003 0.442z"></path>
</svg>
