<!-- Generated by IcoMoon.io -->
<svg version="1.1" xmlns="http://www.w3.org/2000/svg" width="32" height="32" viewBox="0 0 32 32">
<title>IconRedo</title>
<path d="M29.157 16.947l-4.274 4.275c-0.356 0.356-0.84 0.557-1.344 0.557s-0.988-0.2-1.343-0.557l-4.275-4.275c-0.742-0.742-0.742-1.945 0-2.686s1.945-0.742 2.686 0l1.16 1.16c-0.296-3.571-3.29-6.387-6.937-6.387-3.84 0-6.966 3.125-6.966 6.966s3.126 6.966 6.966 6.966c1.049 0 1.9 0.851 1.9 1.9s-0.851 1.9-1.9 1.9c-5.936 0-10.766-4.829-10.766-10.766s4.83-10.766 10.766-10.766c5.659 0 10.301 4.391 10.725 9.941l0.913-0.914c0.742-0.742 1.945-0.742 2.686 0 0.742 0.741 0.742 1.944 0.001 2.686z"></path>
</svg>
