<!-- Generated by IcoMoon.io -->
<svg version="1.1" xmlns="http://www.w3.org/2000/svg" width="32" height="32" viewBox="0 0 32 32">
<title>IconCopy</title>
<path d="M18.698 28.444h-9.285c-2.144 0-3.889-1.745-3.889-3.889v-13.174c0-2.144 1.745-3.889 3.889-3.889h9.285c2.144 0 3.889 1.745 3.889 3.889v13.174c0 2.144-1.745 3.889-3.889 3.889zM9.413 9.438c-1.072 0-1.944 0.872-1.944 1.944v13.174c0 1.072 0.872 1.944 1.944 1.944h9.285c1.072 0 1.944-0.872 1.944-1.944v-13.174c0-1.072-0.872-1.944-1.944-1.944zM26.476 22.125v-14.681c0-2.144-1.745-3.889-3.889-3.889h-10.792c-0.537 0-0.972 0.435-0.972 0.972s0.435 0.972 0.972 0.972h10.792c1.072 0 1.944 0.872 1.944 1.944v14.68c0 0.537 0.435 0.972 0.972 0.972s0.972-0.435 0.972-0.972z"></path>
</svg>
