<!-- Generated by IcoMoon.io -->
<svg version="1.1" xmlns="http://www.w3.org/2000/svg" width="32" height="32" viewBox="0 0 32 32">
<title>IconWallet</title>
<path d="M26.445 15.254v-2.238c0-0.824-0.668-1.492-1.492-1.492h-16.413c-0.823 0-1.492-0.669-1.492-1.492s0.669-1.492 1.492-1.492h16.413c0.824 0 1.492-0.668 1.492-1.492s-0.668-1.492-1.492-1.492h-16.413c-2.468 0-4.476 2.008-4.476 4.476v13.429c0 1.648 1.336 2.984 2.984 2.984h17.905c0.824 0 1.492-0.668 1.492-1.492v-2.238c0.824 0 1.492-0.668 1.492-1.492v-4.476c0-0.824-0.668-1.492-1.492-1.492zM24.206 20.476c-0.824 0-1.492-0.668-1.492-1.492s0.668-1.492 1.492-1.492c0.824 0 1.492 0.668 1.492 1.492s-0.668 1.492-1.492 1.492z"></path>
</svg>
