<!-- Generated by IcoMoon.io -->
<svg version="1.1" xmlns="http://www.w3.org/2000/svg" width="32" height="32" viewBox="0 0 32 32">
<title>IconTransaction</title>
<path d="M27.2 15.17h-3.733v-9.541c-0.001-1.145-0.929-2.073-2.074-2.074h-13.689c-0.916 0-1.659 0.743-1.659 1.659v4.978h-1.244c-0.229 0-0.415 0.186-0.415 0.415v2.489c0 0.229 0.186 0.415 0.415 0.415h1.244v4.563c0 0.229 0.186 0.415 0.415 0.415h2.074v8.296c0 0.916 0.743 1.659 1.659 1.659h13.689c0.916 0 1.659-0.743 1.659-1.659s-0.743-1.659-1.659-1.659h-0.415v-6.637h3.733c0.229 0 0.415-0.186 0.415-0.415v-2.489c0-0.229-0.186-0.415-0.415-0.415zM6.874 5.215c0-0.458 0.371-0.83 0.83-0.83s0.83 0.371 0.83 0.83v4.978h-1.659zM5.215 11.022h11.615c0.209 0 0.385-0.155 0.412-0.362l1.429 1.191-1.429 1.191c-0.027-0.207-0.203-0.362-0.412-0.362h-11.615zM6.874 17.659v-4.148h1.659v4.148zM24.711 26.785c0 0.458-0.371 0.83-0.83 0.83h-12.252c0.146-0.252 0.223-0.538 0.223-0.83v-0.83h12.030c0.458 0 0.83 0.371 0.83 0.83zM22.637 25.126h-11.2c-0.229 0-0.415 0.186-0.415 0.415v1.244c0 0.458-0.371 0.83-0.83 0.83s-0.83-0.371-0.83-0.83v-13.274h7.052v0.415c0 0.161 0.093 0.308 0.239 0.376s0.318 0.046 0.442-0.057l2.489-2.074c0.094-0.079 0.149-0.195 0.149-0.319s-0.055-0.24-0.149-0.319l-2.489-2.074c-0.124-0.103-0.296-0.126-0.442-0.057s-0.239 0.215-0.239 0.376v0.415h-7.052v-4.978c-0.001-0.292-0.081-0.579-0.23-0.83h12.259c0.687 0 1.244 0.557 1.244 1.244v9.541h-7.052v-0.415c0-0.161-0.093-0.308-0.239-0.376s-0.318-0.046-0.442 0.057l-2.489 2.074c-0.094 0.079-0.149 0.195-0.149 0.319s0.055 0.24 0.149 0.319l2.489 2.074c0.124 0.103 0.296 0.126 0.442 0.057s0.239-0.215 0.239-0.376v-0.415h7.052zM26.785 17.659h-11.615c-0.053 0-0.106 0.011-0.156 0.032-0.015 0.008-0.030 0.017-0.044 0.026-0.030 0.015-0.058 0.034-0.083 0.056-0.013 0.015-0.026 0.031-0.037 0.047-0.020 0.023-0.037 0.049-0.052 0.076-0.008 0.019-0.014 0.040-0.019 0.061-0.009 0.020-0.016 0.041-0.020 0.063l-1.43-1.191 1.429-1.191c0.005 0.022 0.012 0.043 0.020 0.063 0.004 0.021 0.011 0.041 0.019 0.061 0.014 0.028 0.032 0.053 0.052 0.076 0.011 0.017 0.023 0.032 0.037 0.047 0.025 0.022 0.053 0.041 0.083 0.056 0.014 0.010 0.029 0.019 0.044 0.027 0.049 0.021 0.103 0.032 0.156 0.032h11.615z"></path>
<path d="M11.022 6.044h4.148v0.83h-4.148z"></path>
<path d="M11.022 7.704h4.148v0.83h-4.148z"></path>
<path d="M12.681 21.807h8.296v0.83h-8.296z"></path>
<path d="M12.681 23.467h8.296v0.83h-8.296z"></path>
<path d="M18.489 20.148h2.489v0.83h-2.489z"></path>
</svg>
