<!-- Generated by IcoMoon.io -->
<svg version="1.1" xmlns="http://www.w3.org/2000/svg" width="32" height="32" viewBox="0 0 32 32">
<title>IconBell</title>
<path d="M21.657 11.476c0 4.538 1.072 7.377 2.094 9.052h-15.503c1.023-1.675 2.094-4.513 2.094-9.052 0-1.563 0.632-2.976 1.656-4.001s2.438-1.656 4.001-1.656 2.976 0.632 4.001 1.656 1.656 2.438 1.656 4.001zM23.92 11.476c0-2.187-0.888-4.168-2.319-5.601s-3.414-2.319-5.601-2.319-4.168 0.888-5.601 2.319-2.319 3.414-2.319 5.601c0 6.932-2.708 9.105-2.9 9.248-0.513 0.348-0.648 1.045-0.304 1.563 0.217 0.325 0.572 0.501 0.941 0.503h20.366c0.625 0 1.131-0.507 1.131-1.131 0-0.384-0.19-0.722-0.485-0.929-0.199-0.147-2.909-2.319-2.909-9.254zM16.979 25.617c-0.157 0.27-0.406 0.451-0.688 0.526s-0.588 0.042-0.859-0.114c-0.183-0.106-0.32-0.251-0.406-0.404-0.31-0.543-1-0.732-1.543-0.422s-0.732 1-0.422 1.543c0.283 0.497 0.705 0.931 1.237 1.24 0.81 0.471 1.737 0.567 2.575 0.344s1.594-0.767 2.064-1.577c0.313-0.541 0.129-1.233-0.411-1.547s-1.233-0.129-1.547 0.411z"></path>
</svg>
