<!-- Generated by IcoMoon.io -->
<svg version="1.1" xmlns="http://www.w3.org/2000/svg" width="20" height="20" viewBox="0 0 20 20">
<title>IconUserCircle</title>
<path d="M12.828 7.879c0-1.562-1.266-2.828-2.828-2.828s-2.828 1.266-2.828 2.828c0 1.562 1.266 2.828 2.828 2.828s2.828-1.266 2.828-2.828zM11.414 7.879c0 0.781-0.633 1.414-1.414 1.414s-1.414-0.633-1.414-1.414c0-0.781 0.633-1.414 1.414-1.414s1.414 0.633 1.414 1.414z"></path>
<path d="M10 2.222c4.296 0 7.778 3.482 7.778 7.778s-3.482 7.778-7.778 7.778c-4.296 0-7.778-3.482-7.778-7.778s3.482-7.778 7.778-7.778zM3.636 10c0 1.478 0.504 2.838 1.349 3.918 1.163-1.522 2.997-2.504 5.060-2.504 2.037 0 3.85 0.957 5.015 2.445 0.818-1.071 1.303-2.408 1.303-3.859 0-3.515-2.849-6.364-6.364-6.364s-6.364 2.849-6.364 6.364zM10 16.364c1.547 0 2.965-0.552 4.068-1.47-0.898-1.251-2.365-2.065-4.023-2.065-1.678 0-3.161 0.835-4.056 2.113 1.095 0.89 2.49 1.423 4.011 1.423z"></path>
</svg>
