<!-- Generated by IcoMoon.io -->
<svg version="1.1" xmlns="http://www.w3.org/2000/svg" width="32" height="32" viewBox="0 0 32 32">
<title>IconMobilePhone</title>
<path d="M21.443 3.556h-10.886c-1.522 0-2.76 1.238-2.76 2.76v19.369c0 1.522 1.238 2.76 2.76 2.76h10.886c1.522 0 2.76-1.238 2.76-2.76v-19.369c0-1.522-1.238-2.76-2.76-2.76zM23.139 25.684c0 0.935-0.761 1.696-1.696 1.696h-10.886c-0.935 0-1.696-0.761-1.696-1.696v-19.369c0-0.935 0.761-1.696 1.696-1.696h10.886c0.935 0 1.696 0.761 1.696 1.696v19.369z"></path>
<path d="M21.991 7.291h-11.982c-0.294 0-0.532 0.238-0.532 0.532v15.554c0 0.294 0.238 0.532 0.532 0.532h11.982c0.294 0 0.532-0.238 0.532-0.532v-15.554c0-0.294-0.238-0.532-0.532-0.532zM21.459 22.845h-10.919v-14.49h10.919v14.49z"></path>
<path d="M16 24.267c-0.787 0-1.428 0.64-1.428 1.428s0.64 1.428 1.428 1.428 1.428-0.64 1.428-1.428-0.64-1.428-1.428-1.428zM16 26.059c-0.201 0-0.364-0.163-0.364-0.364s0.163-0.364 0.364-0.364 0.364 0.163 0.364 0.364-0.163 0.364-0.364 0.364z"></path>
<path d="M15.031 6.579h1.938c0.294 0 0.532-0.238 0.532-0.532s-0.238-0.532-0.532-0.532h-1.938c-0.294 0-0.532 0.238-0.532 0.532s0.238 0.532 0.532 0.532z"></path>
<path d="M16 18.912c2.489 0 4.513-2.025 4.513-4.513s-2.025-4.513-4.513-4.513c-2.488 0-4.513 2.025-4.513 4.513s2.025 4.513 4.513 4.513zM14.696 17.591v-0.148c0-0.718 0.583-1.302 1.301-1.304 0.001 0 0.002 0 0.003 0s0.002-0 0.003-0c0.718 0.002 1.301 0.586 1.301 1.304v0.148c-0.403 0.165-0.843 0.257-1.304 0.257s-0.901-0.092-1.304-0.257zM15.238 14.313c0-0.42 0.342-0.762 0.762-0.762s0.762 0.342 0.762 0.762c0 0.42-0.341 0.761-0.76 0.762-0.001 0-0.001-0-0.002-0s-0.002 0-0.002 0c-0.419-0.001-0.76-0.343-0.76-0.762zM16 10.95c1.902 0 3.449 1.547 3.449 3.449 0 1.011-0.437 1.922-1.132 2.553-0.125-0.589-0.47-1.098-0.944-1.437 0.282-0.322 0.453-0.742 0.453-1.202 0-1.007-0.819-1.826-1.826-1.826s-1.826 0.819-1.826 1.826c0 0.46 0.172 0.881 0.454 1.203-0.474 0.339-0.819 0.848-0.944 1.437-0.695-0.631-1.133-1.542-1.133-2.553 0-1.902 1.547-3.449 3.449-3.449z"></path>
<path d="M17.305 19.626h-2.61c-0.294 0-0.532 0.238-0.532 0.532s0.238 0.532 0.532 0.532h2.61c0.294 0 0.532-0.238 0.532-0.532s-0.238-0.532-0.532-0.532z"></path>
</svg>
