<!-- Generated by IcoMoon.io -->
<svg version="1.1" xmlns="http://www.w3.org/2000/svg" width="20" height="20" viewBox="0 0 20 20">
<title>IconRedo</title>
<path d="M18.223 10.592l-2.671 2.672c-0.222 0.222-0.525 0.348-0.84 0.348s-0.617-0.125-0.839-0.348l-2.672-2.672c-0.464-0.464-0.464-1.216 0-1.679s1.216-0.464 1.679 0l0.725 0.725c-0.185-2.232-2.057-3.992-4.336-3.992-2.4 0-4.354 1.953-4.354 4.354s1.954 4.354 4.354 4.354c0.656 0 1.187 0.532 1.187 1.187s-0.532 1.187-1.187 1.187c-3.71 0-6.729-3.018-6.729-6.729s3.019-6.729 6.729-6.729c3.537 0 6.438 2.744 6.703 6.213l0.571-0.572c0.464-0.464 1.216-0.464 1.679 0s0.464 1.215 0.001 1.679z"></path>
</svg>
