<!-- Generated by IcoMoon.io -->
<svg version="1.1" xmlns="http://www.w3.org/2000/svg" width="32" height="32" viewBox="0 0 32 32">
<title>IconSend</title>
<path d="M12.003 26.098c0 0.143 0.079 0.274 0.206 0.341s0.28 0.058 0.398-0.023l2.659-1.816-3.263-1.555v3.053z"></path>
<path d="M27.824 5.618c-0.073-0.067-0.167-0.103-0.263-0.103-0.057 0-0.115 0.013-0.169 0.039l-22.959 11.262c-0.235 0.115-0.383 0.355-0.382 0.617s0.153 0.5 0.389 0.613l6.051 2.883 12.099-9.944-10.6 10.658 7.538 3.592c0.093 0.044 0.194 0.066 0.294 0.066 0.085 0 0.17-0.016 0.25-0.047 0.176-0.069 0.315-0.208 0.385-0.384l7.463-18.827c0.059-0.148 0.021-0.318-0.097-0.426z"></path>
</svg>
