<!-- Generated by IcoMoon.io -->
<svg version="1.1" xmlns="http://www.w3.org/2000/svg" width="20" height="20" viewBox="0 0 20 20">
<title>IconCross</title>
<path d="M12.196 10l3.733 3.733c0.242 0.242 0.242 0.636 0 0.879l-1.317 1.317c-0.242 0.242-0.636 0.242-0.879 0l-3.733-3.733-3.733 3.733c-0.242 0.242-0.636 0.242-0.878 0l-1.318-1.317c-0.242-0.242-0.242-0.636 0-0.879l3.733-3.733-3.733-3.733c-0.242-0.242-0.242-0.636 0-0.879l1.318-1.317c0.242-0.242 0.636-0.242 0.878 0l3.733 3.733 3.733-3.733c0.242-0.242 0.636-0.242 0.879 0l1.317 1.318c0.242 0.242 0.242 0.636 0 0.879l-3.733 3.733z"></path>
</svg>
