<!-- Generated by IcoMoon.io -->
<svg version="1.1" xmlns="http://www.w3.org/2000/svg" width="32" height="32" viewBox="0 0 32 32">
<title>IconInvoice</title>
<path d="M18.074 22.222h-6.222c-0.573 0-1.037 0.464-1.037 1.037s0.464 1.037 1.037 1.037h6.222c0.573 0 1.037-0.464 1.037-1.037s-0.464-1.037-1.037-1.037z"></path>
<path d="M20.148 18.074h-8.296c-0.573 0-1.037 0.464-1.037 1.037s0.464 1.037 1.037 1.037h8.296c0.573 0 1.037-0.464 1.037-1.037s-0.464-1.037-1.037-1.037z"></path>
<path d="M18.074 13.926h-6.222c-0.573 0-1.037 0.464-1.037 1.037s0.464 1.037 1.037 1.037h6.222c0.573 0 1.037-0.464 1.037-1.037s-0.464-1.037-1.037-1.037z"></path>
<path d="M20.148 9.778h-8.296c-0.573 0-1.037 0.464-1.037 1.037s0.464 1.037 1.037 1.037h8.296c0.573 0 1.037-0.464 1.037-1.037s-0.464-1.037-1.037-1.037z"></path>
<path d="M24.693 3.635c-0.387-0.16-0.834-0.072-1.13 0.225l-1.341 1.341-1.341-1.341c-0.405-0.405-1.062-0.405-1.467 0l-1.341 1.341-1.341-1.341c-0.405-0.405-1.062-0.405-1.467 0l-1.341 1.341-1.341-1.341c-0.405-0.405-1.062-0.405-1.467 0l-1.341 1.341-1.341-1.341c-0.297-0.297-0.743-0.385-1.13-0.225s-0.64 0.539-0.64 0.958v22.815c0 0.573 0.464 1.037 1.037 1.037h16.593c0.573 0 1.037-0.464 1.037-1.037v-22.815c0-0.419-0.253-0.798-0.64-0.958zM23.259 26.37h-14.519v-19.274l0.304 0.304c0.405 0.405 1.062 0.405 1.467 0l1.341-1.341 1.341 1.341c0.405 0.405 1.062 0.405 1.467 0l1.341-1.341 1.341 1.341c0.405 0.405 1.062 0.405 1.467 0l1.341-1.341 1.341 1.341c0.405 0.405 1.062 0.405 1.467 0l0.304-0.304v19.274z"></path>
</svg>
