<!-- Generated by IcoMoon.io -->
<svg version="1.1" xmlns="http://www.w3.org/2000/svg" width="20" height="20" viewBox="0 0 20 20">
<title>IconEdit</title>
<path d="M9.255 3.714h-4.923c-0.582 0-1.111 0.237-1.492 0.618s-0.618 0.909-0.618 1.492v9.844c0 0.582 0.237 1.111 0.618 1.492s0.909 0.618 1.492 0.618h9.844c0.582 0 1.111-0.237 1.492-0.618s0.618-0.909 0.618-1.492v-4.923c0-0.388-0.315-0.703-0.703-0.703s-0.703 0.315-0.703 0.703v4.923c0 0.194-0.078 0.369-0.206 0.497s-0.303 0.206-0.497 0.206h-9.844c-0.194 0-0.369-0.078-0.497-0.206s-0.206-0.303-0.206-0.497v-9.844c0-0.194 0.078-0.369 0.206-0.497s0.303-0.206 0.497-0.206h4.923c0.388 0 0.703-0.315 0.703-0.703s-0.315-0.703-0.703-0.703zM14.031 2.865l-6.68 6.68c-0.086 0.085-0.153 0.197-0.185 0.327l-0.703 2.813c-0.028 0.105-0.030 0.223 0 0.341 0.094 0.377 0.476 0.606 0.853 0.512l2.813-0.703c0.118-0.029 0.232-0.091 0.327-0.185l6.68-6.68c0.428-0.428 0.643-0.992 0.643-1.552s-0.215-1.124-0.643-1.552-0.993-0.643-1.553-0.643-1.124 0.215-1.552 0.643zM15.025 3.859c0.154-0.154 0.355-0.231 0.557-0.231s0.404 0.076 0.557 0.231 0.231 0.355 0.231 0.557-0.076 0.404-0.231 0.557l-6.542 6.542-1.486 0.372 0.372-1.486z"></path>
</svg>
