<!-- Generated by IcoMoon.io -->
<svg version="1.1" xmlns="http://www.w3.org/2000/svg" width="32" height="32" viewBox="0 0 32 32">
<title>IconExit</title>
<path d="M15.959 26.326h-9.294c-0.57 0-1.033-0.463-1.033-1.033v-18.587c0-0.57 0.463-1.033 1.033-1.033h9.294c0.571 0 1.033-0.462 1.033-1.033s-0.462-1.033-1.033-1.033h-9.294c-1.708 0-3.098 1.39-3.098 3.098v18.587c0 1.708 1.39 3.098 3.098 3.098h9.294c0.571 0 1.033-0.462 1.033-1.033s-0.462-1.033-1.033-1.033z"></path>
<path d="M28.125 15.265l-6.278-6.196c-0.405-0.401-1.059-0.395-1.46 0.010s-0.397 1.059 0.010 1.46l4.487 4.428h-12.023c-0.571 0-1.033 0.462-1.033 1.033s0.462 1.033 1.033 1.033h12.023l-4.487 4.428c-0.407 0.401-0.41 1.054-0.010 1.46 0.202 0.204 0.469 0.308 0.735 0.308 0.262 0 0.525-0.099 0.725-0.297l6.278-6.196c0.196-0.194 0.308-0.459 0.308-0.735s-0.11-0.54-0.308-0.735z"></path>
</svg>
