<!-- Generated by IcoMoon.io -->
<svg version="1.1" xmlns="http://www.w3.org/2000/svg" width="20" height="20" viewBox="0 0 20 20">
<title>IconExit</title>
<path d="M9.974 16.454h-5.808c-0.356 0-0.645-0.289-0.645-0.645v-11.617c0-0.356 0.289-0.645 0.645-0.645h5.808c0.357 0 0.645-0.288 0.645-0.645s-0.288-0.645-0.645-0.645h-5.808c-1.067 0-1.936 0.869-1.936 1.936v11.617c0 1.067 0.869 1.936 1.936 1.936h5.808c0.357 0 0.645-0.288 0.645-0.645s-0.288-0.645-0.645-0.645z"></path>
<path d="M17.578 9.541l-3.924-3.872c-0.253-0.25-0.662-0.247-0.913 0.006s-0.248 0.662 0.006 0.913l2.804 2.767h-7.514c-0.357 0-0.645 0.288-0.645 0.645s0.288 0.645 0.645 0.645h7.514l-2.804 2.767c-0.254 0.25-0.256 0.659-0.006 0.913 0.126 0.128 0.293 0.192 0.459 0.192 0.164 0 0.328-0.062 0.453-0.186l3.924-3.872c0.123-0.121 0.192-0.287 0.192-0.459s-0.069-0.337-0.192-0.459z"></path>
</svg>
