<!-- Generated by IcoMoon.io -->
<svg version="1.1" xmlns="http://www.w3.org/2000/svg" width="32" height="32" viewBox="0 0 32 32">
<title>IconElectric</title>
<path d="M23.285 12.323c-0.113-0.17-0.283-0.283-0.509-0.283h-4.186l3.564-7.693c0.057-0.17 0.057-0.396-0.057-0.566s-0.283-0.226-0.453-0.226h-6.222c-0.339 0-0.566 0.226-0.566 0.566s0.226 0.566 0.566 0.566h5.317l-3.564 7.693c-0.057 0.17-0.057 0.396 0.057 0.566s0.283 0.226 0.453 0.226h4.016l-7.976 11.935 1.697-7.863c0.057-0.17 0-0.339-0.113-0.453-0.113-0.17-0.283-0.226-0.453-0.226h-4.921l3.79-12.275c0.113-0.283-0.057-0.622-0.396-0.679-0.283-0.113-0.622 0.057-0.679 0.396l-3.96 13.010c-0.057 0.113-0.057 0.283 0.057 0.453 0.113 0.113 0.283 0.226 0.453 0.226h4.978l-2.149 10.069c-0.057 0.283 0.057 0.509 0.339 0.622 0.057 0.057 0.17 0.057 0.226 0.057 0.17 0 0.339-0.113 0.453-0.226l10.182-15.273c0.113-0.226 0.17-0.396 0.057-0.622z"></path>
<path d="M13.895 8.703c-0.283-0.113-0.622 0.057-0.679 0.339l-1.697 5.091c-0.113 0.283 0.057 0.622 0.339 0.735 0.057 0 0.113 0.057 0.17 0.057 0.226 0 0.453-0.17 0.509-0.396l1.697-5.091c0.113-0.283-0.057-0.622-0.339-0.735z"></path>
</svg>
