<!-- Generated by IcoMoon.io -->
<svg version="1.1" xmlns="http://www.w3.org/2000/svg" width="32" height="32" viewBox="0 0 32 32">
<title>IconFlame</title>
<path d="M24.151 14.227l-1.295-2.64 0.143 2.938c0.109 2.203-0.909 3.423-1.732 4.045 0.305-2.265 0.572-7.082-1.873-10.663-1.529-2.238-3.858-3.608-6.925-4.071l-1.853-0.28 1.338 1.313c1.596 1.567 2.408 3.226 2.413 4.931 0.002 0.984-0.266 1.864-0.6 2.576-0.080-1.244-0.524-2.648-1.951-3.42l-0.964-0.521 0.069 1.093c0.158 2.491-0.906 4.011-2.033 5.621-1.138 1.625-2.314 3.306-2.097 5.931 0.371 4.481 3.124 6.954 8.183 7.349 0.117 0.010 0.239 0.014 0.364 0.014 2.592 0 6.498-1.965 8.548-5.254 1.191-1.909 2.203-5.015 0.267-8.963zM15.337 27.231c-0.028 0-0.053-0.002-0.080-0.003 0.080-0.002 0.152-0.003 0.221-0.004-0.046 0.001-0.095 0.007-0.141 0.007zM22.855 22.549c-1.654 2.654-4.737 4.375-6.943 4.642 2.391-0.746 3.745-9.75-1.144-11.205 1.29 2.238-0.686 4.332-2.391 5.347s-2.855 1.971-2.159 4.154c0.025 0.080 0.064 0.149 0.098 0.222-1.381-1.034-2.137-2.591-2.314-4.727-0.182-2.188 0.821-3.62 1.881-5.134 0.947-1.352 1.996-2.853 2.224-4.987 0.851 1.422 0.252 3.631 0.245 3.658l-0.612 2.191 1.622-1.594c0.090-0.089 2.221-2.219 2.22-5.302-0.001-1.515-0.512-2.979-1.523-4.37 1.855 0.593 3.307 1.646 4.332 3.145 2.938 4.297 1.492 10.916 1.477 10.983l-0.235 1.042 1.016-0.333c0.029-0.009 2.3-0.785 3.206-3.251 0.488 2.369-0.209 4.252-0.998 5.52z"></path>
<path d="M20.772 7.243c0.306 0.455 0.459 0.85 0.559 1.373s0.381 1.643 0.381 1.643l0.472-1.575c0.401-1.431-0.107-2.646-1.496-3.080l-2.21-0.432c0 0 0.822 0.686 1.286 1.028 0.233 0.171 0.703 0.588 1.010 1.042z"></path>
</svg>
