<!-- Generated by IcoMoon.io -->
<svg version="1.1" xmlns="http://www.w3.org/2000/svg" width="20" height="20" viewBox="0 0 20 20">
<title>IconUpload</title>
<path d="M16.808 10.049c0.057-0.283 0.088-0.576 0.088-0.875 0-2.424-1.965-4.389-4.389-4.389-1.797 0-3.342 1.081-4.020 2.628-0.521-0.34-1.143-0.539-1.811-0.539-1.758 0-3.193 1.365-3.313 3.092-0.947 0.434-1.606 1.388-1.606 2.498 0 1.519 1.231 2.75 2.75 2.75 0 0 2.979 0 3.972 0 0.195 0 0.204-0.216 0.204-0.216v-1.764c0-0.151-0.123-0.274-0.274-0.274h-0.751c-0.151 0-0.201-0.099-0.111-0.22l2.29-3.092c0.090-0.121 0.237-0.121 0.326 0l2.29 3.092c0.090 0.121 0.040 0.22-0.111 0.22h-0.751c-0.151 0-0.274 0.123-0.274 0.274v1.768c0 0 0.011 0.213 0.213 0.213 0.991 0 3.963 0 3.963 0 1.519 0 2.75-1.231 2.75-2.75 0-1.043-0.581-1.95-1.436-2.416z"></path>
</svg>
