<!-- Generated by IcoMoon.io -->
<svg version="1.1" xmlns="http://www.w3.org/2000/svg" width="32" height="32" viewBox="0 0 32 32">
<title>IconUserCircle</title>
<path d="M20.525 12.606c0-2.499-2.026-4.525-4.525-4.525s-4.525 2.026-4.525 4.525c0 2.499 2.026 4.525 4.525 4.525s4.525-2.026 4.525-4.525zM18.263 12.606c0 1.25-1.013 2.263-2.263 2.263s-2.263-1.013-2.263-2.263c0-1.25 1.013-2.263 2.263-2.263s2.263 1.013 2.263 2.263z"></path>
<path d="M16 3.555c6.873 0 12.444 5.572 12.444 12.444s-5.572 12.444-12.444 12.444c-6.873 0-12.444-5.572-12.444-12.444s5.572-12.444 12.444-12.444zM5.818 16c0 2.365 0.806 4.541 2.159 6.269 1.86-2.435 4.795-4.007 8.096-4.007 3.259 0 6.16 1.531 8.023 3.912 1.308-1.713 2.086-3.853 2.086-6.175 0-5.623-4.559-10.182-10.182-10.182s-10.182 4.559-10.182 10.182zM16 26.182c2.475 0 4.745-0.883 6.509-2.352-1.437-2.001-3.785-3.304-6.436-3.304-2.685 0-5.058 1.336-6.49 3.38 1.751 1.423 3.985 2.276 6.417 2.276z"></path>
</svg>
