<!-- Generated by IcoMoon.io -->
<svg version="1.1" xmlns="http://www.w3.org/2000/svg" width="20" height="20" viewBox="0 0 20 20">
<title>IconCopy</title>
<path d="M11.686 17.778h-5.803c-1.34 0-2.431-1.090-2.431-2.431v-8.234c0-1.34 1.090-2.431 2.431-2.431h5.803c1.34 0 2.431 1.090 2.431 2.431v8.234c0 1.34-1.090 2.431-2.431 2.431zM5.883 5.898c-0.67 0-1.215 0.545-1.215 1.215v8.234c0 0.67 0.545 1.215 1.215 1.215h5.803c0.67 0 1.215-0.545 1.215-1.215v-8.234c0-0.67-0.545-1.215-1.215-1.215zM16.547 13.828v-9.175c0-1.34-1.090-2.431-2.431-2.431h-6.745c-0.336 0-0.608 0.272-0.608 0.608s0.272 0.608 0.608 0.608h6.745c0.67 0 1.215 0.545 1.215 1.215v9.175c0 0.336 0.272 0.608 0.608 0.608s0.608-0.272 0.608-0.608z"></path>
</svg>
