<!-- Generated by IcoMoon.io -->
<svg version="1.1" xmlns="http://www.w3.org/2000/svg" width="32" height="32" viewBox="0 0 32 32">
<title>IconReport</title>
<path d="M19.463 3.556h-13.358v24.889h19.789v-18.458l-6.431-6.431zM22.58 9.419h-2.548v-2.548l2.548 2.548zM8.047 26.503v-21.006h10.044v4.893c0 0.536 0.435 0.971 0.971 0.971h4.892v15.143h-15.906z"></path>
<path d="M10.434 22.842h11.132v1.294h-11.132v-1.294z"></path>
<path d="M10.434 10.688h6.609v1.294h-6.609v-1.294z"></path>
<path d="M19.249 14.808h0.717l-2.772 2.772-2.168-2.168-4.793 4.793 0.915 0.915 3.877-3.878 2.168 2.168 3.688-3.688v0.716h1.294v-2.925h-2.927z"></path>
<path d="M10.434 7.864h6.609v1.294h-6.609v-1.294z"></path>
</svg>
