<!-- Generated by IcoMoon.io -->
<svg version="1.1" xmlns="http://www.w3.org/2000/svg" width="32" height="32" viewBox="0 0 32 32">
<title>IconInvoiceOutline</title>
<path d="M18.036 12.477c0-0.562-0.456-1.018-1.018-1.018h-8.145c-0.562 0-1.018 0.456-1.018 1.018s0.456 1.018 1.018 1.018h8.145c0.562 0 1.018-0.456 1.018-1.018z"></path>
<path d="M16.679 16.549c0-0.562-0.456-1.018-1.018-1.018h-6.787c-0.562 0-1.018 0.456-1.018 1.018s0.456 1.018 1.018 1.018h6.787c0.562 0 1.018-0.456 1.018-1.018z"></path>
<path d="M17.018 19.603c0.562 0 1.018 0.456 1.018 1.018s-0.456 1.018-1.018 1.018h-8.145c-0.562 0-1.018-0.456-1.018-1.018s0.456-1.018 1.018-1.018h8.145z"></path>
<path d="M7.855 28.766h17.647c2.062 0 3.733-1.671 3.733-3.733v-7.466c0-0.562-0.456-1.018-1.018-1.018h-4.412v-10.598c0-1.932-2.184-3.056-3.756-1.933l-0.238 0.17c-1.059 0.757-2.495 0.754-3.559-0.006-1.77-1.264-4.165-1.264-5.935 0-1.064 0.76-2.5 0.763-3.559 0.006l-0.238-0.17c-1.572-1.123-3.756 0.001-3.756 1.933v17.724c0 2.811 2.279 5.091 5.091 5.091zM11.501 5.839c1.062-0.759 2.506-0.759 3.568 0 1.767 1.262 4.154 1.272 5.926 0.006l0.238-0.17c0.225-0.16 0.537 0 0.537 0.276v19.082c0 0.611 0.147 1.188 0.407 1.697h-14.321c-1.687 0-3.054-1.367-3.054-3.054v-17.724c0-0.276 0.312-0.437 0.537-0.276l0.238 0.17c1.772 1.266 4.159 1.256 5.926-0.006zM23.805 25.033v-6.448h3.394v6.448c0 0.937-0.76 1.697-1.697 1.697s-1.697-0.76-1.697-1.697z"></path>
</svg>
