<!-- Generated by IcoMoon.io -->
<svg version="1.1" xmlns="http://www.w3.org/2000/svg" width="20" height="20" viewBox="0 0 20 20">
<title>IconSettings</title>
<path d="M10.726 17.778h-1.452c-0.491 0-0.905-0.367-0.963-0.856l-0.155-1.216c-0.309-0.1-0.607-0.224-0.891-0.369l-0.968 0.752c-0.393 0.304-0.946 0.269-1.287-0.082l-1.021-1.021c-0.348-0.338-0.383-0.891-0.079-1.283l0.752-0.969c-0.145-0.283-0.269-0.581-0.369-0.891l-1.219-0.155c-0.486-0.060-0.854-0.474-0.854-0.964v-1.452c0-0.491 0.368-0.905 0.856-0.963l1.216-0.155c0.1-0.309 0.224-0.607 0.369-0.891l-0.752-0.968c-0.305-0.393-0.269-0.946 0.082-1.287l1.021-1.021c0.338-0.348 0.891-0.382 1.283-0.079l0.968 0.753c0.283-0.145 0.581-0.268 0.891-0.369l0.155-1.219c0.058-0.486 0.473-0.854 0.963-0.854h1.452c0.491 0 0.905 0.368 0.963 0.856l0.155 1.216c0.31 0.1 0.608 0.224 0.891 0.369l0.968-0.752c0.393-0.304 0.946-0.269 1.287 0.082l1.021 1.021c0.348 0.338 0.383 0.891 0.079 1.283l-0.753 0.969c0.145 0.283 0.269 0.581 0.369 0.891l1.219 0.155c0.485 0.059 0.853 0.473 0.853 0.964v1.452c0 0.491-0.367 0.905-0.856 0.963l-1.216 0.155c-0.1 0.309-0.224 0.607-0.369 0.891l0.753 0.968c0.305 0.393 0.269 0.946-0.082 1.287l-1.021 1.021c-0.338 0.348-0.891 0.384-1.283 0.079l-0.969-0.752c-0.283 0.145-0.581 0.269-0.891 0.369l-0.155 1.219c-0.059 0.486-0.473 0.854-0.964 0.854zM7.232 14.628c0.054 0 0.109 0.014 0.158 0.041 0.357 0.2 0.744 0.36 1.15 0.477 0.124 0.036 0.216 0.142 0.232 0.27l0.181 1.426c0.019 0.163 0.16 0.288 0.32 0.288h1.452c0.16 0 0.301-0.125 0.32-0.285l0.182-1.429c0.016-0.128 0.108-0.235 0.232-0.27 0.406-0.117 0.793-0.277 1.15-0.477 0.113-0.064 0.255-0.053 0.356 0.027l1.134 0.881c0.13 0.101 0.313 0.093 0.425-0.022l1.027-1.027c0.117-0.114 0.126-0.297 0.025-0.428l-0.881-1.134c-0.080-0.102-0.091-0.243-0.027-0.356 0.2-0.357 0.36-0.744 0.477-1.15 0.036-0.124 0.142-0.216 0.27-0.232l1.426-0.181c0.163-0.020 0.288-0.161 0.288-0.321v-1.452c0-0.16-0.125-0.301-0.285-0.32l-1.429-0.182c-0.128-0.016-0.235-0.108-0.27-0.232-0.117-0.406-0.277-0.793-0.477-1.15-0.064-0.113-0.053-0.254 0.027-0.356l0.881-1.134c0.102-0.131 0.093-0.314-0.021-0.424l-1.027-1.027c-0.113-0.118-0.297-0.127-0.428-0.025l-1.134 0.881c-0.103 0.080-0.244 0.091-0.357 0.027-0.356-0.2-0.743-0.36-1.15-0.477-0.124-0.036-0.216-0.142-0.232-0.27l-0.181-1.426c-0.020-0.163-0.161-0.288-0.321-0.288h-1.452c-0.16 0-0.301 0.125-0.32 0.285l-0.182 1.429c-0.016 0.128-0.108 0.235-0.232 0.271-0.407 0.117-0.794 0.277-1.15 0.476-0.113 0.064-0.254 0.053-0.357-0.027l-1.134-0.881c-0.131-0.102-0.313-0.093-0.424 0.021l-1.027 1.028c-0.117 0.114-0.126 0.297-0.025 0.428l0.881 1.134c0.080 0.102 0.091 0.243 0.027 0.356-0.2 0.357-0.36 0.744-0.477 1.15-0.036 0.124-0.142 0.216-0.27 0.232l-1.426 0.181c-0.163 0.019-0.288 0.16-0.288 0.32v1.452c0 0.16 0.125 0.301 0.285 0.32l1.429 0.182c0.128 0.016 0.235 0.108 0.27 0.232 0.117 0.406 0.277 0.793 0.477 1.15 0.064 0.113 0.053 0.254-0.027 0.356l-0.881 1.134c-0.102 0.131-0.093 0.314 0.021 0.424l1.027 1.027c0.113 0.117 0.296 0.126 0.428 0.025l1.134-0.881c0.059-0.044 0.129-0.067 0.2-0.067z"></path>
<path d="M10 13.241c-1.787 0-3.241-1.454-3.241-3.241s1.454-3.241 3.241-3.241 3.241 1.454 3.241 3.241-1.454 3.241-3.241 3.241zM10 7.407c-1.43 0-2.593 1.163-2.593 2.593s1.163 2.593 2.593 2.593 2.593-1.163 2.593-2.593-1.163-2.593-2.593-2.593z"></path>
</svg>
