<!-- Generated by IcoMoon.io -->
<svg version="1.1" xmlns="http://www.w3.org/2000/svg" width="32" height="32" viewBox="0 0 32 32">
<title>IconAccounting</title>
<path d="M12.903 16.022h-4.901c-0.201 0-0.365 0.163-0.365 0.365s0.163 0.365 0.365 0.365h4.901c0.201 0 0.365-0.163 0.365-0.365s-0.163-0.365-0.365-0.365z"></path>
<path d="M12.903 19.202h-4.901c-0.201 0-0.365 0.163-0.365 0.365s0.163 0.365 0.365 0.365h4.901c0.201 0 0.365-0.163 0.365-0.365s-0.163-0.365-0.365-0.365z"></path>
<path d="M12.903 22.382h-4.901c-0.201 0-0.365 0.163-0.365 0.365s0.163 0.365 0.365 0.365h4.901c0.201 0 0.365-0.163 0.365-0.365s-0.163-0.365-0.365-0.365z"></path>
<path d="M16.991 18.748h0.774c0.201 0 0.365-0.163 0.365-0.365s-0.163-0.365-0.365-0.365h-0.774c-0.201 0-0.365 0.163-0.365 0.365s0.163 0.365 0.365 0.365z"></path>
<path d="M20.116 18.018h-0.774c-0.201 0-0.365 0.163-0.365 0.365s0.163 0.365 0.365 0.365h0.774c0.201 0 0.365-0.163 0.365-0.365s-0.163-0.365-0.365-0.365z"></path>
<path d="M22.466 18.018h-0.774c-0.201 0-0.365 0.163-0.365 0.365s0.163 0.365 0.365 0.365h0.774c0.201 0 0.365-0.163 0.365-0.365s-0.163-0.365-0.365-0.365z"></path>
<path d="M24.817 18.018h-0.774c-0.201 0-0.365 0.163-0.365 0.365s0.163 0.365 0.365 0.365h0.774c0.201 0 0.365-0.163 0.365-0.365s-0.163-0.365-0.365-0.365z"></path>
<path d="M16.991 20.643h0.774c0.201 0 0.365-0.163 0.365-0.365s-0.163-0.365-0.365-0.365h-0.774c-0.201 0-0.365 0.163-0.365 0.365s0.163 0.365 0.365 0.365z"></path>
<path d="M20.116 19.914h-0.774c-0.201 0-0.365 0.163-0.365 0.365s0.163 0.365 0.365 0.365h0.774c0.201 0 0.365-0.163 0.365-0.365s-0.163-0.365-0.365-0.365z"></path>
<path d="M22.466 19.914h-0.774c-0.201 0-0.365 0.163-0.365 0.365s0.163 0.365 0.365 0.365h0.774c0.201 0 0.365-0.163 0.365-0.365s-0.163-0.365-0.365-0.365z"></path>
<path d="M24.817 19.914h-0.774c-0.201 0-0.365 0.163-0.365 0.365s0.163 0.365 0.365 0.365h0.774c0.201 0 0.365-0.163 0.365-0.365s-0.163-0.365-0.365-0.365z"></path>
<path d="M16.991 22.539h0.774c0.201 0 0.365-0.163 0.365-0.365s-0.163-0.365-0.365-0.365h-0.774c-0.201 0-0.365 0.163-0.365 0.365s0.163 0.365 0.365 0.365z"></path>
<path d="M20.116 21.81h-0.774c-0.201 0-0.365 0.163-0.365 0.365s0.163 0.365 0.365 0.365h0.774c0.201 0 0.365-0.163 0.365-0.365s-0.163-0.365-0.365-0.365z"></path>
<path d="M22.466 21.81h-0.774c-0.201 0-0.365 0.163-0.365 0.365s0.163 0.365 0.365 0.365h0.774c0.201 0 0.365-0.163 0.365-0.365s-0.163-0.365-0.365-0.365z"></path>
<path d="M24.817 21.81h-0.774c-0.201 0-0.365 0.163-0.365 0.365s0.163 0.365 0.365 0.365h0.774c0.201 0 0.365-0.163 0.365-0.365s-0.163-0.365-0.365-0.365z"></path>
<path d="M8.806 12.391c-0.168-0.11-0.394-0.063-0.505 0.105s-0.063 0.394 0.106 0.505c0.534 0.349 0.894 0.446 1.372 0.468v0.491c0 0.201 0.163 0.365 0.365 0.365s0.365-0.163 0.365-0.365v-0.518c0.925-0.164 1.466-0.918 1.584-1.623 0.15-0.891-0.317-1.666-1.189-1.975-0.142-0.050-0.274-0.098-0.396-0.145v-2.039c0.355 0.069 0.567 0.251 0.584 0.266 0.148 0.134 0.377 0.124 0.513-0.023s0.127-0.379-0.021-0.515c-0.023-0.022-0.423-0.381-1.076-0.466v-0.439c0-0.201-0.163-0.365-0.365-0.365s-0.365 0.163-0.365 0.365v0.467c-0.072 0.015-0.145 0.033-0.22 0.056-0.572 0.172-1 0.663-1.116 1.279-0.106 0.561 0.073 1.101 0.466 1.409 0.218 0.171 0.492 0.328 0.87 0.495v2.551c-0.355-0.019-0.583-0.094-0.973-0.348zM10.508 10.477c0.050 0.018 0.1 0.036 0.152 0.055 0.796 0.281 0.747 0.964 0.713 1.166-0.069 0.41-0.363 0.846-0.865 0.995zM9.358 9.12c-0.178-0.14-0.255-0.408-0.2-0.701 0.051-0.273 0.239-0.604 0.61-0.716 0.003-0.001 0.007-0.002 0.010-0.003v1.681c-0.172-0.089-0.309-0.174-0.42-0.261z"></path>
<path d="M24.019 26.299c-0.201 0-0.365 0.163-0.365 0.365v0.261c0 0.436-0.355 0.791-0.791 0.791h-16.422c-0.436 0-0.791-0.355-0.791-0.791v-21.849c0-0.436 0.355-0.791 0.791-0.791h12.756c0.039 0 0.076 0.004 0.114 0.009v3.049c0 0.709 0.576 1.285 1.285 1.285h3.049c0.005 0.038 0.009 0.075 0.009 0.114v1.74c0 0.201 0.163 0.365 0.365 0.365s0.365-0.163 0.365-0.365v-1.741c0-0.417-0.2-0.83-0.438-1.067-0.15-0.15-3.67-3.67-3.674-3.674l-0.008-0.008c-0-0-0.001-0.001-0.001-0.001l-0-0c-0.001-0.001-0.002-0.002-0.003-0.003-0.274-0.268-0.652-0.433-1.062-0.433h-12.756c-0.838 0-1.52 0.682-1.52 1.52v21.849c0 0.838 0.682 1.52 1.52 1.52h16.422c0.838 0 1.52-0.682 1.52-1.52v-0.261c0-0.201-0.163-0.365-0.365-0.365zM20.041 4.8c0.272 0.272 2.731 2.731 3.098 3.098h-2.542c-0.306 0-0.556-0.249-0.556-0.556v-2.542z"></path>
<path d="M25.813 11.828h-9.817c-0.698 0-1.266 0.568-1.266 1.266v1.227c0 0.201 0.163 0.365 0.365 0.365s0.365-0.163 0.365-0.365v-1.227c0-0.296 0.241-0.537 0.537-0.537h9.817c0.296 0 0.537 0.241 0.537 0.537v10.966c0 0.296-0.241 0.537-0.537 0.537h-9.817c-0.296 0-0.537-0.241-0.537-0.537v-8.035c0-0.201-0.163-0.365-0.365-0.365s-0.365 0.163-0.365 0.365v8.035c0 0.698 0.568 1.266 1.266 1.266h9.817c0.698 0 1.266-0.568 1.266-1.266v-10.966c0-0.698-0.568-1.266-1.266-1.266z"></path>
<path d="M25.182 14.24c0-0.356-0.289-0.645-0.645-0.645h-7.265c-0.356 0-0.645 0.289-0.645 0.645v1.866c0 0.356 0.289 0.645 0.645 0.645h7.265c0.356 0 0.645-0.289 0.645-0.645zM24.453 16.022h-7.096v-1.697h7.096v1.697z"></path>
</svg>
